# xmcd CD database file
#
# Track frame offsets:
#	150
#	8533
#	23850
#	39399
#	63707
#	72244
#	85411
#	97481
#	104374
#	114933
#	125568
#	140766
#	148946
#	159561
#	170440
#	185441
#	193006
#	206090
#	222494
#	229256
#	239110
#	257346
#	267677
#
# Disc length: 3723 seconds
#
# Revision: 0
# Processed by: cddbd v1.5.1PL0 Copyright (c) Steve Scherf et al.
# Submitted via: CDex 1.51
#
DISCID=690e8917
DTITLE=Billie Holiday - Lady Live!
DYEAR=2005
DGENRE=Jazz
TTITLE0=Them There Eyes
TTITLE1=My Man
TTITLE2=I Cover The Waterfront
TTITLE3=Bille's Blues ( I Love My Man )
TTITLE4=I Only Have Eyes For You
TTITLE5=( I Got A Man, Crazy For Me ) He's Funny That Way
TTITLE6=I Loves You, Porgy
TTITLE7=You'er Driving Me Crazy ( Wat Did I Do? )
TTITLE8=T'Ain't Nobody's Biz-Ness If I Do
TTITLE9=Lover, Come Back To Me
TTITLE10=Strange Fruit
TTITLE11=Miss Brown To You
TTITLE12=Detour Ahead
TTITLE13=Lover Man ( Oh, Where Can You Be? )
TTITLE14=Fine And Mellow
TTITLE15=All Of Me
TTITLE16=You Go To My Head
TTITLE17=Do Nothing 'Til You Here From Me
TTITLE18=I'll Get By ( As Long As I Have You )
TTITLE19=Crazy He Calls Me
TTITLE20=Willow Weep For Me
TTITLE21=Too Marvellous For Words
TTITLE22=Lover, Come Back To Me ( Alternative Version )
EXTD=YEAR: 2005
EXTT0=
EXTT1=
EXTT2=
EXTT3=
EXTT4=
EXTT5=
EXTT6=
EXTT7=
EXTT8=
EXTT9=
EXTT10=
EXTT11=
EXTT12=
EXTT13=
EXTT14=
EXTT15=
EXTT16=
EXTT17=
EXTT18=
EXTT19=
EXTT20=
EXTT21=
EXTT22=
PLAYORDER=
